/* XPM */
static char *_681d68a186e4fca95804e4ae8ae32219wBZYwlejuvnG2Wa[] = {
/* columns rows colors chars-per-pixel */
"64 64 62 1 ",
"  c None",
". c black",
"X c #382C14",
"o c #202020",
"O c #2C2C2C",
"+ c gray22",
"@ c #640000",
"# c #700000",
"$ c #7C0000",
"% c #403018",
"& c #483818",
"* c #543C1C",
"= c #5C4020",
"- c #6C4824",
"; c #744C28",
": c #484848",
"> c gray33",
", c #646464",
"< c gray44",
"1 c #7C7C7C",
"2 c #880000",
"3 c #980000",
"4 c #A40000",
"5 c #A80000",
"6 c #B00000",
"7 c #BC0000",
"8 c #C80000",
"9 c #D40000",
"0 c #E00000",
"q c #EC0000",
"w c #FC0000",
"e c #FC2020",
"r c #9C4C00",
"t c #80502C",
"y c #885830",
"u c #905C34",
"i c #9C6038",
"p c #A0643C",
"a c #CC6000",
"s c #A86840",
"d c #B47044",
"f c #BC7848",
"g c #FC5C5C",
"h c #C87C4C",
"j c #FC8820",
"k c #FCF400",
"l c #D08050",
"z c #DC8854",
"x c #E88C58",
"c c #F0945C",
"v c #FCA85C",
"b c #FCA470",
"n c gray55",
"m c #989898",
"M c gray66",
"N c #B4B4B4",
"B c #C0C0C0",
"V c #D0D0D0",
"C c gainsboro",
"Z c #FCFCD8",
"A c #ECECEC",
"S c gray99",
/* pixels */
"cfffffffzzccccccczzzcczzzzzcccfdbzzzzzzzzzzzzzzfffffffzzzzzfffd ",
"f-;;;tttyuiiiiiiupsfzzlhzlhfds;*lsssssssddddddsppiipsddspuyttt= ",
"f;;;ttktttttttt;tysfzzfflzhfsp;*lssdddfhhlzlllhffffflhdpkyyyyy= ",
"f;;;;vZt;;;;;;;tyisddsipdfhfds;=zhhlzllzzzxzzzzzxzlllfpiZviiiu= ",
"fttvkZZjkkk>1>kkkkkkkkkkkkkkkkkkkkkkkkkkkkkkkkkkkk,1kkkZZkkviu= ",
"fttaaakrrrrM>+:+rrrrrrrrrrrrrrrrrrrrrrrrrrrrrrrr+O.:irrrvaaauu= ",
"fttt==j===;;5w6:+.;;;;;;;tttyu-*siiuuyuuutt;;;.O+@6%*--;r=-uuu- ",
"fttttttyuidfww0063$$ipsssdddddy=clhddslhdssss#66676*-yuuuuyyyy- ",
"f;;;tttyisddww00987655679wS:Sw975N.m523689qeeww0976*-yuuytttty- ",
"f;;;;;tusdsiww00987655679wS:Sw975N.m523689qeeww0976=;uyyttt;tt- ",
"f;;;ttupssuyww00987655679wS:Sw975N.m523689qeeww0976=;iyttt;;tt= ",
"fttuipsspuytww00987655679wS:Sw975N.m523689qeeww0976=tsiyttttty= ",
"fyisdffsutttww00987655679wS:Sw975N.m523689qeeww0976*;sssiyyyyy= ",
"zssssffsttttww00987655679wS:Sw975N.m523689qeeww0976*;dhfsiiiiu- ",
"csiyusdit;ttww00987655679wS:Sw975N.m523689qeeww0976*;flfspiiii- ",
"zuttussy;;;tww00987655679wS:Sw975N.m523689qeeww0976*tfdspiuuip; ",
"f;;tidit-;;tww00987655679gS:Sw975N.m523689qeeww0976=tsiuuuyyui- ",
"f-;tpdi;-;tyww0098765567gSS:SAACVN.mm,3689qeeww0976=;iyyuuuuui- ",
"f-;ysdu;-;ypww009876556<CS>:SAACVNM..1<:89qeeww0976*-yyuiiiuui; ",
"f-tifdu;;ypdww00987655<BO:Sm:++Ooo.mm..m<9qeeww0976&=yyuiiiuidt ",
"f-tpfsytypddww0098765<BO<S>:SAACVNM..1<.M<qeeww0976&=yuuiiiishy ",
"f-tpdpyypdsiww0098765N.<C:SS>++nVNMm<.<<.Nqeeww0976*-uiiiipdhlt ",
"f;ysdpipdsitww009876M.<BOSSn:++>VNMmm1.m<.Veeww0976*;ppiipfzzf- ",
"ftpdsssdsit;ww00987,M.BOCSn::+>nVN>.O1<.M.Vmeww0976*;ssiidlzfp= ",
"fpdfdddsit;-ww00987n.N.BCn>::>nCV>...O<m.N.Aewwq976*;ssiidlfit= ",
"zdfffdsiyt;-SSSVNmnn.N.BM:>::>nC>o....Om.<.AAACVMn<*;ssipdfpyy- ",
"cddfdsiytt;;..+++...M.BBCn>::+>>oo.....O<.V:,>>O...*;spisddpist ",
"cdddsuyttttySSSVNmnnM.BBCSn::++Ooo.O....M.VAAACVMn<*;siidhhdddt ",
"bddputttyyisww00987nM.BBCSSn:++OooOmO...M.VAeww0876*;sssfllfds- ",
"bdsuttyyuisfww00987nM.BOnSSS>++OoO,mmOOOM.VAeww0876*tdddffdsiu= ",
"bsuyttuipsdhww00987nM.BOOnSn:++Ooo.,m1<mM.VAeww0876=yhfdsiuuyy= ",
"f-====--;;yySSSVNmnnM.BOO:>::++>oo..,1<mM.VAAACVMn<*-ut;--====& ",
"d*&&&&****==..+++...M.B>O:>::+nC>o...1<m<.V:,>>O...%*-=***&&&&X ",
"cffffffflzzcSSSVNnnn.<.B>:>::nACV>....<m.N.AAACVMn<;szlllfffffy ",
"ftttttttydxcww00987n.N.BCn>:nAACV>....<m.N.Aeww0976;idsspiuytt= ",
"ftttttttudzzww009876M.BOCSSSSAAC>o...1<.M.Vneww0976;iddsspiuyy- ",
"f;ttttyisdddww009876M.BBOSSSSAACoo..m1.m<.Aeeww0976-ydddddfdss; ",
"f;ttyisddspiww0098765N.BC:SSSAAC>o.m:.<<.N<eeww0976=;dddhlllhft ",
"ftyisdddsiiiww0098765gBOCS>:SAACVNM..1:.Mnqeeww0976*;ddhlhffdd; ",
"fypdddspiiipww00987655gBO:SS:++Ooo.mm..mn9qeeww0976*;dhhfdspiu= ",
"fpddsiiuiiiiww009876556gCM>:SAACVN<..1<<89qeeww0976-uhhfdsiuyt* ",
"zssiyyuuiiuuww00987655679mS:SAACVN.mm,3689qeeww0976;uhfdsiuyt;* ",
"cputtyuuuuyyww00987655679wS:Sw975N.m523689qeeww0976=yddssiuytt* ",
"zyttyuuuuyyyww00987655679wS:Sw975N.m523689qeeww0976*tddddssspi- ",
"fttyuiuuuyyuww00987655679wS:Sw975N.m523689qeeww0976=yfhfdddddd; ",
"ftyuiiiuuuisww00987655679wS:Sw975N.m523689qeeww0976=tsssspiiiu- ",
"fyuippiipsddww00987655679wS:Sw975N.m523689qeeww0976*;iuuyyyttt= ",
"fupssppsdfddww00987655679wS:Sw975N.m523689qeeww0976*;psppiiuuu- ",
"fpssssddfdsuww00987655679wS:Sw975N.m523689qeeww0976*tddddssssd; ",
"zssddfhfdputww00987655679wS:Sw975N.m523689qeeww0976=;ppiiuuuis- ",
"zsdfhlhdsiytww00987655679wS:Sw975N.m523689qeeww0976*-ytt;;;;;t= ",
"zdhllhdssiuyww00987655679wS:Sw975N.m523689qeeww0976&=ttt;-===;* ",
"chlhfddssiuyww00987655679wS:Sw975N.m523689qeeww0976*=tttt;;;;;= ",
"chfddddsspuyww00987655679wS:Sw975N.m523689qeeww0976*;uyttttttt= ",
"cddsdddssiuyww00987655679wS:Sw975N.m523689qeeww0976=tpuuuuuyyy= ",
"zspssssspiuuuit*********33M.M3333,.,****$49eeww097-*;sssssspii- ",
"fuuiiiippppssdsp;-;;;;;;;*****%X=&****************-;ypddddddsp- ",
"fyyyuuipsdffdsuyttttttyuy;;;-=&Xy=-tut;---=====---;;tyipsssdds- ",
"fyyuipsdddffsyttttttyyuuiuuyyt=&ftiiy;==-;;;tttttt;;tttyyyusdd; ",
"fisssdddspsputttyyyyyuuuuuyttt=&fiiy;==--;;;;ttttttttttttttyist ",
"zssspiuytttyyyyyuuuuyyyytttytt=*lput;;;;;;;;;tttttttttttttttty- ",
"zuytt;;;-;ttyuiiiiuuuyyyttuipp;*littttttt;;;;;tttttttttt;;;;;;= ",
"zuytt;;;-;ttyuiiiiuuuyyyttuipp;*littttttt;;;;;tttttttttt;;;;;;= ",
"f=*****==-;tupssssssssppipssdd;*ftt;ttttt;;;-;;;;;;;;;;;;;;;-=& "
};
